<svg xmlns="http://www.w3.org/2000/svg" xmlns:xlink="http://www.w3.org/1999/xlink" viewBox="0 0 186 35.01"><defs><style>.cls-1{fill:none;}.cls-2{clip-path:url(#clip-path);}.cls-3{fill:#1a8cff;}.cls-4{fill:#b3daff;}.cls-5{fill:#66b3ff;}</style><clipPath id="clip-path" transform="translate(0 0)"><rect class="cls-1" width="186" height="35.01"/></clipPath></defs><title>rakumo株式会社</title><g id="レイヤー_2" data-name="レイヤー 2"><g id="テキスト"><g id="rakumo"><g class="cls-2"><g class="cls-2"><path class="cls-3" d="M57.43,11a3.25,3.25,0,0,0-1.46.36h0l0,0h0l-3.91,2a3.16,3.16,0,0,0-6.23.74v13.9a3.16,3.16,0,0,0,6.32,0V20.49L58.88,17h0a3.16,3.16,0,0,0-1.45-6m46.46,3.16A3.16,3.16,0,0,0,100.73,11a3.21,3.21,0,0,0-1.45.36h0l0,0h0l-8,4.14V4.05a3.16,3.16,0,0,0-6.32,0v24a3.16,3.16,0,0,0,6.32,0V26.7l8,4.16h0a3.08,3.08,0,0,0,1.45.36,3.16,3.16,0,0,0,1.4-6l-7.92-4.11,8-4.16h0a3.15,3.15,0,0,0,1.7-2.8M153.15,11a10.08,10.08,0,0,0-6.94,2.77,10.12,10.12,0,0,0-7-2.77,10,10,0,0,0-4.56,1.1,3.16,3.16,0,0,0-5.55,2.06v13.9a3.16,3.16,0,1,0,6.32,0V21.11a3.79,3.79,0,0,1,7.58,0v7a3.16,3.16,0,0,0,6.32,0V21.11a3.79,3.79,0,0,1,7.58,0v7a3.17,3.17,0,0,0,.77,2.07l.17.18a3.15,3.15,0,0,0,5.37-2.25V21.11A10.11,10.11,0,0,0,153.15,11m-29.68,0a3.19,3.19,0,0,0-3.16,3.16v7a3.79,3.79,0,0,1-7.58,0v-7A3.17,3.17,0,0,0,109.58,11a3.16,3.16,0,0,0-3.16,3.16v7a10.1,10.1,0,0,0,14.67,9,3.15,3.15,0,0,0,5.54-2.07V14.16A3.17,3.17,0,0,0,123.47,11M72.31,11a10.11,10.11,0,1,0,4.56,19.13,3.21,3.21,0,0,0,2.39,1.09,3.17,3.17,0,0,0,3.16-3.16V21.11A10.11,10.11,0,0,0,72.31,11m0,13.91a3.79,3.79,0,1,1,3.79-3.79,3.79,3.79,0,0,1-3.79,3.79M175.89,11A10.11,10.11,0,1,0,186,21.11,10.11,10.11,0,0,0,175.89,11m0,13.9a3.79,3.79,0,1,1,3.79-3.79,3.79,3.79,0,0,1-3.79,3.79" transform="translate(0 0)"/><polygon class="cls-3" points="22.73 21.88 30.32 17.5 30.32 8.75 15.16 17.5 15.16 35.01 22.73 30.63 22.73 21.88"/><polygon class="cls-4" points="22.73 4.38 15.16 0 0 8.75 0 26.25 7.58 30.63 7.58 13.13 22.73 4.38"/><polygon class="cls-5" points="30.32 8.75 22.73 4.38 7.58 13.13 7.58 30.63 15.16 35.01 15.16 17.5 30.32 8.75"/></g></g></g></g></g></svg>